<svg xmlns="http://www.w3.org/2000/svg" width="58" height="59.728" viewBox="0 0 58 59.728">
    <g transform="translate(-61 -331)">
        <circle cx="28" cy="28" r="28" transform="translate(63 331)" fill="#851d40" />
        <path
            d="M7.81,2.668a2,2,0,0,1,3.379,0l5.866,9.262A2,2,0,0,1,15.366,15H3.634a2,2,0,0,1-1.69-3.07Z"
            transform="matrix(0.875, -0.485, 0.485, 0.875, 61, 377.609)" fill="#851d40" />
        <path
            d="M17.323,6.54a1.54,1.54,0,1,0-3.081,0v7.7H6.54a1.54,1.54,0,1,0,0,3.081h7.7v7.7a1.54,1.54,0,0,0,3.081,0v-7.7h7.7a1.54,1.54,0,0,0,0-3.081h-7.7Z"
            transform="translate(69.441 364.777) rotate(-60)" fill="#fff" stroke="#fff"
            stroke-width="1" fill-rule="evenodd" />
    </g>
</svg>