<svg xmlns="http://www.w3.org/2000/svg" xmlns:xlink="http://www.w3.org/1999/xlink" width="26.009"
    height="26.009" viewBox="0 0 26.009 26.009">
    <defs>
        <linearGradient id="linear-gradient" x1="0.5" x2="0.5" y2="1"
            gradientUnits="objectBoundingBox">
            <stop offset="0" stop-color="#c45d8d" />
            <stop offset="1" stop-color="#ce4d65" />
        </linearGradient>
    </defs>
    <path
        d="M5.911,2.364V1.182a1.182,1.182,0,0,1,2.364,0V2.364H13a1.182,1.182,0,0,1,0,2.364H11.639a19.816,19.816,0,0,1-3.776,8.286,19.824,19.824,0,0,0,4.568,3.705,1.182,1.182,0,0,1-1.217,2.028,22.326,22.326,0,0,1-4.891-3.913A29.648,29.648,0,0,1,1.869,18.7,1.182,1.182,0,1,1,.5,16.771a26.991,26.991,0,0,0,4.31-3.778A19.657,19.657,0,0,1,2.449,8.715a1.182,1.182,0,1,1,2.2-.878A17.374,17.374,0,0,0,6.353,11.08a17.4,17.4,0,0,0,2.87-6.351H1.182a1.182,1.182,0,1,1,0-2.364ZM21.741,20.1H16.09l-1.982,5.153A1.182,1.182,0,1,1,11.9,24.4L17.812,9.033a1.182,1.182,0,0,1,2.207,0L25.93,24.4a1.182,1.182,0,0,1-2.207.849Zm-.909-2.364-1.916-4.982L17,17.733Z"
        transform="translate(0)" fill-rule="evenodd" fill="url(#linear-gradient)" />
</svg>