<svg xmlns="http://www.w3.org/2000/svg" width="131.3" height="131.3" viewBox="0 0 131.3 131.3">
    <path
        d="M29.841,11.936V5.968a5.968,5.968,0,0,1,11.936,0v5.968H53.611c.063,0,.127,0,.19,0H65.649a5.968,5.968,0,0,1,0,11.936H58.754A100.037,100.037,0,0,1,39.695,65.7,100.076,100.076,0,0,0,62.752,84.4a5.968,5.968,0,0,1-6.141,10.235A112.705,112.705,0,0,1,31.922,74.884,149.667,149.667,0,0,1,9.437,94.378,5.968,5.968,0,1,1,2.5,84.665,136.255,136.255,0,0,0,24.258,65.592a99.231,99.231,0,0,1-11.894-21.6A5.968,5.968,0,1,1,23.447,39.56a87.705,87.705,0,0,0,8.623,16.375A87.848,87.848,0,0,0,46.559,23.872H5.968a5.968,5.968,0,1,1,0-11.936Zm79.913,89.521H81.226L71.219,127.473a5.968,5.968,0,0,1-11.14-4.285L89.92,45.6a5.968,5.968,0,0,1,11.14,0l29.84,77.585a5.968,5.968,0,0,1-11.14,4.285Zm-4.591-11.936L95.49,64.37,85.816,89.521Z"
        fill="#D42E52" fill-rule="evenodd" />
</svg>