<svg width="0" height="0" class="hidden">

  <symbol xmlns="http://www.w3.org/2000/svg" viewBox="0 0 58 59.728" id="true">
    <g transform="translate(-61 -341)">
      <circle cx="28" cy="28" r="28" transform="translate(63 341)" fill="#005d39"></circle>
      <path
        d="M7.81,2.668a2,2,0,0,1,3.379,0l5.866,9.262A2,2,0,0,1,15.366,15H3.634a2,2,0,0,1-1.69-3.07Z"
        transform="matrix(0.875, -0.485, 0.485, 0.875, 61, 387.609)" fill="#005f38"></path>
      <path d="M7,17.363l6.272,6.272L27.908,9"
        transform="matrix(0.999, -0.035, 0.035, 0.999, 72.987, 353.301)" fill="none" stroke="#fff"
        stroke-linecap="round" stroke-linejoin="round" stroke-width="4"></path>
    </g>
  </symbol>

  <symbol xmlns="http://www.w3.org/2000/svg" viewBox="0 0 58 59.728" id="false">
    <g transform="translate(-61 -331)">
      <circle cx="28" cy="28" r="28" transform="translate(63 331)" fill="#851d40"></circle>
      <path
        d="M7.81,2.668a2,2,0,0,1,3.379,0l5.866,9.262A2,2,0,0,1,15.366,15H3.634a2,2,0,0,1-1.69-3.07Z"
        transform="matrix(0.875, -0.485, 0.485, 0.875, 61, 377.609)" fill="#851d40"></path>
      <path
        d="M17.323,6.54a1.54,1.54,0,1,0-3.081,0v7.7H6.54a1.54,1.54,0,1,0,0,3.081h7.7v7.7a1.54,1.54,0,0,0,3.081,0v-7.7h7.7a1.54,1.54,0,0,0,0-3.081h-7.7Z"
        transform="translate(69.441 364.777) rotate(-60)" fill="#fff" stroke="#fff" stroke-width="1"
        fill-rule="evenodd"></path>
    </g>
  </symbol>

  <symbol fill="currentcolor" xmlns="http://www.w3.org/2000/svg" viewBox="0 0 512 512" id="langue">
    <path
      d="M478.33,433.6l-90-218a22,22,0,0,0-40.67,0l-90,218a22,22,0,1,0,40.67,16.79L316.66,406H419.33l18.33,44.39A22,22,0,0,0,458,464a22,22,0,0,0,20.32-30.4ZM334.83,362,368,281.65,401.17,362Z">
    </path>
    <path
      d="M267.84,342.92a22,22,0,0,0-4.89-30.7c-.2-.15-15-11.13-36.49-34.73,39.65-53.68,62.11-114.75,71.27-143.49H330a22,22,0,0,0,0-44H214V70a22,22,0,0,0-44,0V90H54a22,22,0,0,0,0,44H251.25c-9.52,26.95-27.05,69.5-53.79,108.36-31.41-41.68-43.08-68.65-43.17-68.87a22,22,0,0,0-40.58,17c.58,1.38,14.55,34.23,52.86,83.93.92,1.19,1.83,2.35,2.74,3.51-39.24,44.35-77.74,71.86-93.85,80.74a22,22,0,1,0,21.07,38.63c2.16-1.18,48.6-26.89,101.63-85.59,22.52,24.08,38,35.44,38.93,36.1a22,22,0,0,0,30.75-4.9Z">
    </path>
  </symbol>

  <symbol fill="currentcolor" id="informatique" xmlns="http://www.w3.org/2000/svg"
    viewBox="0 0 92 92">
    <path id="XMLID_1666_"
      d="M46,0C20.6,0,0,20.6,0,46s20.6,46,46,46s46-20.6,46-46S71.4,0,46,0z M49.7,83.8c-0.2,0-0.4,0-0.7,0.1V62.2
	c5.2-0.1,9.9-0.2,14.2-0.5C59.4,73.4,52.3,81.2,49.7,83.8z M42.3,83.8c-2.7-2.7-9.7-10.5-13.5-22.1c4.2,0.3,9,0.5,14.2,0.5v21.7
	C42.8,83.9,42.6,83.8,42.3,83.8z M8,46c0-2.5,0.3-5,0.7-7.4c2.2-0.4,6.4-1,12.3-1.6c-0.5,2.9-0.8,5.9-0.8,9.1c0,3.2,0.3,6.2,0.7,9
	c-5.8-0.6-10.1-1.2-12.3-1.6C8.3,51,8,48.5,8,46z M26.3,46c0-3.4,0.4-6.6,1-9.6c4.6-0.3,9.8-0.6,15.7-0.6v20.4
	c-5.8-0.1-11.1-0.3-15.8-0.7C26.7,52.6,26.3,49.4,26.3,46z M49.6,8.2c2.7,2.7,9.6,10.7,13.5,22.1c-4.2-0.3-8.9-0.5-14.1-0.5V8.1
	C49.2,8.1,49.4,8.2,49.6,8.2z M43,8.1v21.7c-5.2,0.1-9.9,0.2-14.1,0.5c3.8-11.4,10.8-19.4,13.4-22.1C42.6,8.2,42.8,8.1,43,8.1z
	 M49,56.2V35.8c5.8,0.1,11.1,0.3,15.7,0.6c0.6,3,1,6.2,1,9.6c0,3.4-0.3,6.6-0.9,9.6C60.2,55.9,54.9,56.1,49,56.2z M70.9,37
	c5.9,0.6,10.1,1.2,12.3,1.6C83.7,41,84,43.5,84,46c0,2.5-0.3,5-0.7,7.4c-2.2,0.4-6.4,1-12.3,1.6c0.5-2.9,0.7-5.9,0.7-9.1
	C71.7,42.9,71.4,39.8,70.9,37z M81.4,32.2c-2.8-0.4-6.8-0.9-11.9-1.4c-2.4-8.6-6.6-15.5-10.1-20.4C69.5,14.2,77.5,22.2,81.4,32.2z
	 M32.6,10.4c-3.6,4.8-7.7,11.7-10.1,20.3c-5,0.4-9,1-11.9,1.4C14.5,22.2,22.6,14.2,32.6,10.4z M10.6,59.8c2.8,0.4,6.8,0.9,11.8,1.4
	c2.4,8.6,6.4,15.5,10,20.3C22.4,77.6,14.5,69.7,10.6,59.8z M59.6,81.5c3.6-4.8,7.6-11.6,10-20.2c5-0.4,9-1,11.8-1.4
	C77.5,69.7,69.6,77.6,59.6,81.5z"></path>
  </symbol>

  <symbol fill="currentcolor" xmlns="http://www.w3.org/2000/svg" viewBox="0 0 50 50" id="art">
    <path
      d="M21.211 6c-12.632 0-20.211 10.133-20.211 15.2s2.526 8.867 7.579 8.867 7.58 1.266 7.58 5.066c0 5.066 3.789 8.866 8.842 8.866 16.422 0 24-8.866 24-17.732-.001-15.2-12.635-20.267-27.79-20.267zm-3.158 5.067c1.744 0 3.158 1.418 3.158 3.166 0 1.75-1.414 3.167-3.158 3.167s-3.158-1.418-3.158-3.167c0-1.748 1.414-3.166 3.158-3.166zm10.104 0c1.744 0 3.158 1.418 3.158 3.166 0 1.75-1.414 3.167-3.158 3.167-1.743 0-3.157-1.418-3.157-3.167 0-1.748 1.414-3.166 3.157-3.166zm10.106 5.066c1.745 0 3.159 1.417 3.159 3.167 0 1.75-1.414 3.166-3.159 3.166-1.744 0-3.157-1.417-3.157-3.166-.001-1.749 1.413-3.167 3.157-3.167zm-29.052 2.534c1.744 0 3.157 1.417 3.157 3.165 0 1.75-1.414 3.167-3.157 3.167s-3.158-1.418-3.158-3.167c0-1.748 1.414-3.165 3.158-3.165zm15.789 12.666c2.093 0 3.789 1.7 3.789 3.801 0 2.098-1.696 3.799-3.789 3.799s-3.789-1.701-3.789-3.799c0-2.101 1.696-3.801 3.789-3.801z">
    </path>
  </symbol>

  <symbol fill="currentcolor" id="culture" xmlns="http://www.w3.org/2000/svg" viewBox="0 0 512 512">
    <g>
      <path
        d="M489.86,269.259L291.814,5.181c-3.828-5.078-10.766-6.656-16.391-3.688L45.798,122.431l213.813,285.063
		l225.921-119.016c3.359-1.766,5.781-4.906,6.594-8.609C492.97,276.166,492.142,272.291,489.86,269.259z"></path>
      <polygon points="481.767,313.228 257.908,430.587 261.298,437.071 485.157,319.697 	"></polygon>
      <polygon points="254.908,469.806 486.048,348.603 482.657,342.119 251.501,463.337 	"></polygon>
      <path
        d="M486.173,364.541L239.205,493.962c-7.5,1.906-5.781-3.953-5.797-13.125
		c0.703-24.656,6.719-46.203,13.406-53.25L33.017,142.525c-9.547,11.453-17.766,47.094-10.969,85.891l211.141,281.515
		c1.531,2.031,4.328,2.656,6.563,1.469l247.875-131.312c2.203-1.172,3.719-3.328,4.078-5.797c0.328-2.469-0.516-4.953-2.328-6.688
		L486.173,364.541z"></path>
    </g>
  </symbol>

</svg>